<?xml version="1.0" encoding="utf-8"?>
<!-- Generator: Adobe Illustrator 23.0.3, SVG Export Plug-In . SVG Version: 6.00 Build 0)  -->
<svg version="1.1" id="Layer_1" xmlns="http://www.w3.org/2000/svg" xmlns:xlink="http://www.w3.org/1999/xlink" x="0px" y="0px"
	 viewBox="0 0 96 96" style="enable-background:new 0 0 96 96;" xml:space="preserve">
<style type="text/css">
	.st0{fill:#5C4800;}
	.st1{fill:#DAA520;}
	.st2{clip-path:url(#SVGID_2_);fill:#584B37;}
	.st3{clip-path:url(#SVGID_2_);fill:#5B4D38;}
	.st4{clip-path:url(#SVGID_4_);fill:#5C4800;}
	.st5{clip-path:url(#SVGID_6_);fill:#5B4D38;}
	.st6{clip-path:url(#SVGID_6_);fill:#584B37;}
	.st7{clip-path:url(#SVGID_8_);fill:#5C4800;}
</style>
<polygon class="st0" points="27.42,62.67 25.31,61.26 70.02,61.1 72.13,62.52 "/>
<polygon class="st0" points="72.13,62.52 70.02,61.1 48.74,21.94 50.86,23.36 "/>
<polygon class="st0" points="17.17,68.61 15.06,67.2 49.07,10.14 51.18,11.55 "/>
<path class="st1" d="M51.18,11.55l30.89,56.83l-64.89,0.23L51.18,11.55z M50.86,23.36L27.42,62.67l44.71-0.16L50.86,23.36"/>
<g>
	<path class="st1" d="M46.68,36.16l2.25,7.69c0.29,0.97,0.34,1.01,1.07,1.07v0.53h-3.12v-0.53h0.32c0.44,0,0.64-0.14,0.64-0.42
		c0-0.13-0.02-0.24-0.14-0.65l-0.41-1.51h-2.8l-0.42,1.51c-0.04,0.13-0.06,0.28-0.06,0.38c0,0.28,0.14,0.51,0.35,0.61
		c0.15,0.07,0.26,0.08,0.61,0.08v0.53h-2.54v-0.53c0.58-0.03,0.76-0.22,1.02-1.07l2.22-7.35L46.68,36.16z M47.1,41.72l-1.15-4.27
		l-1.27,4.27H47.1z"/>
	<path class="st1" d="M54.09,36.16l2.26,7.69c0.29,0.97,0.34,1.01,1.07,1.07v0.53h-3.12v-0.53h0.32c0.44,0,0.64-0.14,0.64-0.42
		c0-0.13-0.02-0.24-0.14-0.65l-0.41-1.51h-2.8l-0.42,1.51c-0.04,0.13-0.06,0.28-0.06,0.38c0,0.28,0.14,0.51,0.35,0.61
		c0.15,0.07,0.26,0.08,0.61,0.08v0.53h-2.54v-0.53c0.59-0.03,0.76-0.22,1.02-1.07l2.22-7.35L54.09,36.16z M54.52,41.72l-1.15-4.27
		l-1.27,4.27H54.52z"/>
	<path class="st1" d="M37.45,49.68l2.26,7.69c0.29,0.97,0.34,1.01,1.07,1.07v0.53h-3.12v-0.53h0.32c0.44,0,0.64-0.14,0.64-0.42
		c0-0.14-0.02-0.24-0.14-0.65l-0.41-1.51h-2.8l-0.42,1.51c-0.04,0.13-0.06,0.28-0.06,0.38c0,0.28,0.14,0.51,0.35,0.61
		c0.15,0.07,0.26,0.08,0.61,0.08v0.53H33.2v-0.53c0.59-0.03,0.76-0.22,1.02-1.07l2.22-7.35L37.45,49.68z M37.88,55.24l-1.15-4.27
		l-1.27,4.27H37.88z"/>
	<path class="st1" d="M43.47,59.23l-2.06-8.05c-0.15-0.61-0.26-0.7-0.75-0.7h-0.05v-0.53h2.92v0.53h-0.45
		c-0.21,0.01-0.34,0.01-0.35,0.03c-0.11,0.04-0.19,0.15-0.19,0.28c0,0.09,0.01,0.12,0.16,0.76l1.25,5.12l1.38-5.08
		c-0.24-0.96-0.36-1.11-0.96-1.11h-0.32v-0.53h3.25v0.53h-0.29c-0.46,0-0.66,0.12-0.66,0.42c0,0.12,0.03,0.24,0.12,0.65l1.26,5.12
		l1.35-5.12c0.06-0.2,0.09-0.39,0.09-0.53c0-0.34-0.21-0.54-0.6-0.54h-0.34v-0.53h2.37v0.53c-0.6,0.05-0.65,0.11-0.92,1.07
		l-2.09,7.69h-0.31l-1.69-6.59l-1.75,6.59H43.47z"/>
	<path class="st1" d="M54.04,49.68l2.26,7.69c0.29,0.97,0.34,1.01,1.07,1.07v0.53h-3.12v-0.53h0.32c0.44,0,0.64-0.14,0.64-0.42
		c0-0.14-0.02-0.24-0.14-0.65l-0.41-1.51h-2.8l-0.42,1.51c-0.04,0.13-0.06,0.28-0.06,0.38c0,0.28,0.14,0.51,0.35,0.61
		c0.15,0.07,0.26,0.08,0.61,0.08v0.53h-2.54v-0.53c0.59-0.03,0.76-0.22,1.02-1.07l2.22-7.35L54.04,49.68z M54.46,55.24l-1.15-4.27
		l-1.27,4.27H54.46z"/>
	<path class="st1" d="M60.9,57.38c0,0.85,0.15,1.05,0.8,1.05h0.29v0.53h-3.33v-0.53h0.29c0.65,0,0.8-0.2,0.8-1.05v-2.11l-2.04-4.42
		c-0.15-0.28-0.26-0.35-0.7-0.38h-0.08v-0.53h2.9v0.53l-0.24,0.01c-0.47,0.01-0.47,0.01-0.51,0.04c-0.08,0.03-0.12,0.11-0.12,0.19
		c0,0.1,0.06,0.27,0.32,0.83l1.35,2.94l1.31-2.94c0.12-0.28,0.19-0.5,0.19-0.62c0-0.32-0.21-0.44-0.76-0.44h-0.1v-0.53h2.56v0.53
		c-0.67,0.07-0.77,0.15-1.2,1.07l-1.72,3.57V57.38z"/>
</g>
<g>
	<defs>
		<path id="SVGID_1_" d="M28.61,81.41c5.77,3.94,12.76,6.24,20.34,6.28l-2.11-1.44c-7.59-0.04-14.57-2.34-20.34-6.28L28.61,81.41z"
			/>
	</defs>
	<clipPath id="SVGID_2_">
		<use xlink:href="#SVGID_1_"  style="overflow:visible;"/>
	</clipPath>
	<path class="st2" d="M28.61,81.41l-2.11-1.44c3.6,2.45,7.67,4.28,12.06,5.31l2.11,1.44C36.28,85.69,32.21,83.87,28.61,81.41"/>
	<path class="st3" d="M40.67,86.72l-2.11-1.44c2.65,0.62,5.42,0.96,8.28,0.97l2.11,1.44C46.1,87.68,43.33,87.34,40.67,86.72"/>
</g>
<g>
	<defs>
		<path id="SVGID_3_" d="M85.89,48.26c-0.76,21.09-18.24,38.1-39.05,37.99l2.11,1.44c20.81,0.1,38.29-16.9,39.05-37.99
			c0.48-13.4-5.91-25.22-15.98-32.08l-2.11-1.44C79.98,23.04,86.37,34.86,85.89,48.26"/>
	</defs>
	<use xlink:href="#SVGID_3_"  style="overflow:visible;fill:#5C4800;"/>
	<clipPath id="SVGID_4_">
		<use xlink:href="#SVGID_3_"  style="overflow:visible;"/>
	</clipPath>
	<path class="st4" d="M48.95,87.69l-2.11-1.44c0.53,0,1.07-0.01,1.6-0.03l2.11,1.44C50.02,87.68,49.49,87.69,48.95,87.69"/>
	<path class="st4" d="M50.55,87.66l-2.11-1.44c2.31-0.09,4.57-0.38,6.77-0.87l2.11,1.44C55.12,87.28,52.86,87.58,50.55,87.66"/>
	<path class="st4" d="M57.32,86.79l-2.11-1.44c2.01-0.45,3.96-1.05,5.85-1.8l2.11,1.44C61.28,85.74,59.33,86.35,57.32,86.79"/>
	<path class="st4" d="M63.17,84.99l-2.11-1.44c1.94-0.78,3.82-1.71,5.6-2.78l2.11,1.44C66.99,83.28,65.11,84.21,63.17,84.99"/>
	<path class="st4" d="M68.77,82.21l-2.11-1.44c2.1-1.26,4.08-2.72,5.92-4.35l2.11,1.44C72.85,79.49,70.87,80.95,68.77,82.21"/>
	<path class="st4" d="M74.69,77.86l-2.11-1.44c7.81-6.94,12.91-16.98,13.31-28.16c0.48-13.4-5.91-25.22-15.98-32.08l2.11,1.44
		C82.09,24.48,88.48,36.3,88,49.69C87.6,60.88,82.5,70.91,74.69,77.86"/>
</g>
<g>
	<defs>
		<path id="SVGID_5_" d="M51.92,5.06c8.81,0.04,16.93,2.73,23.65,7.31l-2.11-1.44C66.73,6.35,58.61,3.66,49.8,3.62L51.92,5.06z"/>
	</defs>
	<use xlink:href="#SVGID_5_"  style="overflow:visible;fill:#5C4800;"/>
	<clipPath id="SVGID_6_">
		<use xlink:href="#SVGID_5_"  style="overflow:visible;"/>
	</clipPath>
	<path class="st5" d="M51.91,5.06L49.8,3.62c3.31,0.02,6.52,0.41,9.6,1.13l2.11,1.44C58.44,5.46,55.23,5.07,51.91,5.06"/>
	<path class="st6" d="M61.52,6.19l-2.11-1.44c5.11,1.2,9.85,3.32,14.04,6.18l2.11,1.44C71.37,9.51,66.63,7.39,61.52,6.19"/>
</g>
<g>
	<defs>
		<path id="SVGID_7_" d="M4.33,47.85c-0.56,15.58,6.91,29.36,18.64,37.36l2.11,1.44c-11.73-8-19.19-21.77-18.64-37.36
			C7.32,24.78,27.72,4.94,51.92,5.06L49.8,3.62c-0.07,0-0.14,0-0.22,0C25.49,3.62,5.21,23.42,4.33,47.85"/>
	</defs>
	<use xlink:href="#SVGID_7_"  style="overflow:visible;fill:#5C4800;"/>
	<clipPath id="SVGID_8_">
		<use xlink:href="#SVGID_7_"  style="overflow:visible;"/>
	</clipPath>
	<path class="st7" d="M25.08,86.65l-2.11-1.44c-11.73-8-19.19-21.77-18.64-37.36c0.47-13,6.42-24.68,15.52-32.77l2.11,1.44
		c-9.1,8.09-15.05,19.78-15.52,32.77C5.89,64.88,13.35,78.65,25.08,86.65"/>
	<path class="st7" d="M21.96,16.52l-2.11-1.44c2.14-1.9,4.45-3.61,6.91-5.08l2.11,1.44C26.41,12.91,24.1,14.62,21.96,16.52"/>
	<path class="st7" d="M28.87,11.44L26.76,10c2.08-1.25,4.26-2.33,6.53-3.24L35.4,8.2C33.13,9.1,30.95,10.19,28.87,11.44"/>
	<path class="st7" d="M35.4,8.2l-2.11-1.44c2.19-0.88,4.47-1.58,6.8-2.1L42.2,6.1C39.87,6.62,37.59,7.32,35.4,8.2"/>
	<path class="st7" d="M42.2,6.1l-2.11-1.44c2.55-0.57,5.18-0.91,7.86-1.01l2.11,1.44C47.38,5.19,44.76,5.53,42.2,6.1"/>
	<path class="st7" d="M50.06,5.09l-2.11-1.44c0.61-0.02,1.23-0.03,1.85-0.03l2.11,1.44C51.29,5.05,50.68,5.06,50.06,5.09"/>
</g>
<g>
	<path class="st1" d="M51.91,5.06C76.11,5.18,95.08,25.22,94.2,49.73c-0.88,24.51-21.28,44.35-45.47,44.23
		C24.53,93.84,5.57,73.8,6.44,49.29C7.32,24.78,27.72,4.94,51.91,5.06 M48.95,87.69c20.81,0.1,38.29-16.9,39.05-37.99
		c0.76-21.08-15.5-38.25-36.31-38.36c-20.82-0.1-38.3,16.9-39.06,37.99C11.88,70.41,28.14,87.59,48.95,87.69"/>
	<path class="st1" d="M51.18,11.55l30.89,56.83l-64.89,0.23L51.18,11.55z M50.86,23.36L27.42,62.67l44.71-0.16L50.86,23.36"/>
</g>
</svg>
