<?xml version="1.0" encoding="utf-8"?>
<!-- Generator: Adobe Illustrator 24.1.0, SVG Export Plug-In . SVG Version: 6.00 Build 0)  -->
<svg version="1.1" id="Layer_1" xmlns="http://www.w3.org/2000/svg" xmlns:xlink="http://www.w3.org/1999/xlink" x="0px" y="0px"
	 width="96px" height="96px" viewBox="0 0 96 96" style="enable-background:new 0 0 96 96;" xml:space="preserve">
<style type="text/css">
	.st0{fill:none;stroke:#AAAAAA;stroke-width:2.0668;stroke-linecap:round;stroke-linejoin:round;stroke-miterlimit:10;}
	.st1{fill:#DAA520;}
</style>
<polygon class="st0" points="48,8.9 2.1,88.1 93.9,88.1 "/>
<g>
	<g>
		<path class="st1" d="M41.6,38.5l4.1,14.1c0.7,1.9,0.7,1.9,2.5,1.9v1h-7.7l0.1-1h0.7c1,0,1.5-0.2,1.5-0.8c0-0.2,0-0.4-0.2-1.2
			L41.9,50h-6.5l-1.4,2.7c0,0.2-0.3,0.6-0.3,0.6c-0.1,0.6,0.1,1,0.6,1c0.2,0.2,0.7,0.2,1.4,0.2l-0.1,1h-6.2l0.2-1
			c1.5,0,1.8-0.4,2.9-1.9l6.8-13.4L41.6,38.5z M41.6,48.6l-1.7-7.9l-3.7,7.9H41.6z"/>
	</g>
	<g>
		<path class="st1" d="M56.3,38.5l7.3,14.1c1.1,1.9,1.1,1.9,3,1.9l0.2,1H59l-0.1-1h0.7c1,0,1.5-0.2,1.4-0.8c0-0.2-0.1-0.4-0.4-1.2
			L59.2,50h-6.6l-0.8,2.7c0,0.2-0.2,0.6-0.2,0.6c0,0.6,0.3,1,0.8,1c0.3,0.2,0.8,0.2,1.5,0.2l0.1,1h-6.3v-1c1.5,0,1.7-0.4,2.5-1.9
			l3.9-13.4L56.3,38.5z M58.5,48.6L55,40.7l-2,7.9H58.5z"/>
	</g>
	<g>
		<path class="st1" d="M26.1,65.4l4.1,14.1c0.7,1.9,0.7,1.9,2.5,1.9v1H25l0.1-1h0.7c1,0,1.5-0.2,1.5-0.8c0-0.2,0-0.4-0.2-1.2
			l-0.8-2.7H20l-1.4,2.7c0,0.2-0.3,0.6-0.3,0.6c-0.1,0.6,0.1,1,0.6,1c0.2,0.2,0.7,0.2,1.4,0.2l-0.1,1h-6.2l0.2-1
			c1.5,0,1.8-0.4,2.9-1.9L24,65.8L26.1,65.4z M26.1,75.5l-1.7-7.9l-3.7,7.9H26.1z"/>
	</g>
	<path class="st1" d="M38.1,82.7L33.9,68c-0.2-1-0.6-1.2-1.4-1.2l0,0v-1h5.8v1h-0.8c-0.4,0-0.6,0-0.6,0c-0.2,0-0.4,0.2-0.4,0.6
		c0,0.2,0,0.2,0.4,1.4l2.5,9.3l2.7-9.3c-0.4-1.9-0.6-2.1-1.9-2.1h-0.6v-1H46v1h-0.6c-0.8,0-1.2,0.2-1.2,0.8c0,0.2,0,0.4,0.2,1.2
		l2.5,9.3l2.7-9.3c0.2-0.4,0.2-0.6,0.2-1c0-0.6-0.4-1-1.2-1H48v-1h4.3v1c-1.2,0-1.2,0.2-1.9,1.9l-4.1,14.1h-0.6l-3.3-12.2l-3.5,12.2
		C38.7,82.7,38.1,82.7,38.1,82.7z"/>
	<path class="st1" d="M59,65.4l4.5,14.1c0.6,1.9,0.6,1.9,2.1,1.9v1h-6.2v-1H60c0.8,0,1.2-0.2,1.2-0.8c0-0.2,0-0.4-0.2-1.2l-0.8-2.7
		h-5.6l-0.8,2.7c0,0.2-0.2,0.6-0.2,0.6c0,0.6,0.2,1,0.6,1c0.2,0.2,0.6,0.2,1.2,0.2v1h-5v-1c1.2,0,1.4-0.4,2.1-1.9l4.3-13.4L59,65.4z
		 M59.8,75.5l-2.3-7.9L55,75.5H59.8z"/>
	<path class="st1" d="M72.6,79.4c0,1.7,0.2,1.9,1.7,1.9h0.6v1h-6.6v-1h0.4c1.2,0,1.7-0.4,1.7-1.9v-3.9l-4.1-8.1
		c-0.2-0.6-0.6-0.6-1.4-0.6h-0.2v-1h5.8v1h-0.4c-1,0-1,0-1,0c-0.2,0-0.2,0.2-0.2,0.4c0,0.2,0.2,0.4,0.6,1.4L72,74l2.7-5.4
		c0.2-0.6,0.4-0.8,0.4-1.2c0-0.6-0.4-0.8-1.4-0.8h-0.2v-1h5.2v1c-1.2,0.2-1.4,0.2-2.5,1.9l-3.5,6.6C72.6,75.1,72.6,79.4,72.6,79.4z"
		/>
</g>
</svg>
