<?xml version="1.0" encoding="utf-8"?>
<!-- Generator: Adobe Illustrator 24.1.0, SVG Export Plug-In . SVG Version: 6.00 Build 0)  -->
<svg version="1.1" id="Layer_1" xmlns="http://www.w3.org/2000/svg" xmlns:xlink="http://www.w3.org/1999/xlink" x="0px" y="0px"
	 width="96px" height="96px" viewBox="0 0 96 96" style="enable-background:new 0 0 96 96;" xml:space="preserve">
<style type="text/css">
	.st0{fill:none;stroke:#FFFFFF;stroke-width:2.0668;stroke-miterlimit:10;}
	.st1{fill:#DAA520;}
</style>
<polygon class="st0" points="48,8.9 2.1,88.1 93.9,88.1 "/>
<g>
	<path class="st1" d="M41.6,38.5l4.5,14.1c0.6,1.9,0.6,1.9,2.1,1.9v1H42v-1h0.6c0.8,0,1.2-0.2,1.2-0.8c0-0.2,0-0.4-0.2-1.2l-0.8-2.5
		h-5.6l-0.8,2.7c0,0.2-0.2,0.6-0.2,0.6c0,0.6,0.2,1,0.6,1c0.2,0.2,0.6,0.2,1.2,0.2v1h-5v-1c1.2,0,1.4-0.4,2.1-1.9l4.3-13.4
		L41.6,38.5z M42.4,48.6l-2.3-7.9l-2.5,7.9H42.4z"/>
	<path class="st1" d="M56.3,38.5l4.5,14.1c0.6,1.9,0.6,1.9,2.1,1.9v1h-6.2v-1h0.6c0.8,0,1.2-0.2,1.2-0.8c0-0.2,0-0.4-0.2-1.2
		l-0.8-2.5h-5.6l-0.8,2.7c0,0.2-0.2,0.6-0.2,0.6c0,0.6,0.2,1,0.6,1c0.2,0.2,0.6,0.2,1.2,0.2v1h-5v-1c1.2,0,1.4-0.4,2.1-1.9l4.3-13.4
		L56.3,38.5z M57.1,48.6l-2.3-7.9l-2.5,7.9H57.1z"/>
	<path class="st1" d="M26.1,65.4l4.5,14.1c0.6,1.9,0.6,1.9,2.1,1.9v1h-6.2v-1h0.6c0.8,0,1.2-0.2,1.2-0.8c0-0.2,0-0.4-0.2-1.2
		l-0.8-2.7h-5.6l-0.8,2.7c0,0.2-0.2,0.6-0.2,0.6c0,0.6,0.2,1,0.6,1c0.2,0.2,0.6,0.2,1.2,0.2v1h-5v-1c1.2,0,1.4-0.4,2.1-1.9L24,65.8
		L26.1,65.4z M26.9,75.5l-2.3-7.9l-2.5,7.9H26.9z"/>
	<path class="st1" d="M38.1,82.7L33.9,68c-0.2-1-0.6-1.2-1.4-1.2l0,0v-1h5.8v1h-0.8c-0.4,0-0.6,0-0.6,0c-0.2,0-0.4,0.2-0.4,0.6
		c0,0.2,0,0.2,0.4,1.4l2.5,9.3l2.7-9.3c-0.4-1.9-0.6-2.1-1.9-2.1h-0.6v-1h6.4v1h-0.6c-0.8,0-1.2,0.2-1.2,0.8c0,0.2,0,0.4,0.2,1.2
		l2.5,9.3l2.7-9.3c0.2-0.4,0.2-0.6,0.2-1c0-0.6-0.4-1-1.2-1h-0.6v-1h4.3v1c-1.2,0-1.2,0.2-1.9,1.9l-4.1,14.1h-0.6l-3.3-12.2
		l-3.5,12.2C38.7,82.7,38.1,82.7,38.1,82.7z"/>
	<path class="st1" d="M59,65.4l4.5,14.1c0.6,1.9,0.6,1.9,2.1,1.9v1h-6.2v-1H60c0.8,0,1.2-0.2,1.2-0.8c0-0.2,0-0.4-0.2-1.2l-0.8-2.7
		h-5.6l-0.8,2.7c0,0.2-0.2,0.6-0.2,0.6c0,0.6,0.2,1,0.6,1c0.2,0.2,0.6,0.2,1.2,0.2v1h-5v-1c1.2,0,1.4-0.4,2.1-1.9l4.3-13.4L59,65.4z
		 M59.8,75.5l-2.3-7.9L55,75.5H59.8z"/>
	<path class="st1" d="M72.6,79.4c0,1.7,0.2,1.9,1.7,1.9h0.6v1h-6.6v-1h0.4c1.2,0,1.7-0.4,1.7-1.9v-3.9l-4.1-8.1
		c-0.2-0.6-0.6-0.6-1.4-0.6h-0.2v-1h5.8v1h-0.4c-1,0-1,0-1,0c-0.2,0-0.2,0.2-0.2,0.4c0,0.2,0.2,0.4,0.6,1.4L72,74l2.7-5.4
		c0.2-0.6,0.4-0.8,0.4-1.2c0-0.6-0.4-0.8-1.4-0.8h-0.2v-1h5.2v1c-1.2,0.2-1.4,0.2-2.5,1.9l-3.5,6.6C72.6,75.1,72.6,79.4,72.6,79.4z"
		/>
</g>
</svg>
